<?xml version="1.0" standalone="no"?>
<!DOCTYPE svg PUBLIC "-//W3C//DTD SVG 20010904//EN"
 "http://www.w3.org/TR/2001/REC-SVG-20010904/DTD/svg10.dtd">
<svg version="1.0" xmlns="http://www.w3.org/2000/svg"
 width="96.000000pt" height="96.000000pt" viewBox="0 0 96.000000 96.000000"
 preserveAspectRatio="xMidYMid meet">

<g transform="translate(0.000000,96.000000) scale(0.100000,-0.100000)"
fill="#000000" stroke="none">
<path d="M383 796 c-172 -56 -264 -208 -235 -389 7 -46 6 -59 -6 -69 -10 -9
-12 -24 -8 -60 9 -67 14 -75 49 -93 67 -33 72 -22 46 101 -43 204 -27 305 60
387 120 113 330 97 428 -31 58 -77 67 -161 33 -334 -24 -123 -24 -127 -5 -134
19 -8 73 17 81 36 15 41 22 106 11 125 -6 11 -11 70 -11 130 -1 99 -4 115 -28
160 -32 62 -104 130 -165 157 -59 26 -191 34 -250 14z"/>
<path d="M253 364 c-7 -18 14 -138 29 -166 11 -22 41 -23 58 -3 9 11 8 30 -4
90 -9 42 -18 81 -22 86 -9 15 -54 10 -61 -7z"/>
<path d="M663 368 c-11 -14 -33 -118 -33 -154 0 -28 36 -42 56 -23 21 22 47
159 33 175 -14 17 -43 18 -56 2z"/>
</g>
</svg>
