<?xml version="1.0" standalone="no"?>
<!DOCTYPE svg PUBLIC "-//W3C//DTD SVG 20010904//EN"
 "http://www.w3.org/TR/2001/REC-SVG-20010904/DTD/svg10.dtd">
<svg version="1.0" xmlns="http://www.w3.org/2000/svg"
 width="48.000000pt" height="48.000000pt" viewBox="0 0 48.000000 48.000000"
 preserveAspectRatio="xMidYMid meet">

<g transform="translate(0.000000,48.000000) scale(0.100000,-0.100000)"
fill="#000000" stroke="none">
<path d="M150 378 c-58 -40 -74 -71 -75 -143 -1 -35 -3 -67 -6 -70 -12 -11 5
-66 23 -76 11 -6 22 -8 25 -5 3 3 0 42 -7 88 -11 72 -10 88 3 120 21 49 68 78
130 78 118 0 163 -84 128 -239 -10 -48 1 -62 29 -36 17 15 19 29 16 106 -5
101 -21 140 -76 176 -47 32 -143 32 -190 1z"/>
<path d="M126 182 c-9 -15 16 -92 30 -92 15 0 18 38 8 78 -6 22 -28 30 -38 14z"/>
<path d="M325 168 c-10 -46 -10 -71 2 -75 15 -5 33 36 33 73 0 31 -28 32 -35
2z"/>
</g>
</svg>
