<?xml version="1.0" standalone="no"?>
<!DOCTYPE svg PUBLIC "-//W3C//DTD SVG 20010904//EN"
 "http://www.w3.org/TR/2001/REC-SVG-20010904/DTD/svg10.dtd">
<svg version="1.0" xmlns="http://www.w3.org/2000/svg"
 width="64.000000pt" height="64.000000pt" viewBox="0 0 64.000000 64.000000"
 preserveAspectRatio="xMidYMid meet">

<g transform="translate(0.000000,64.000000) scale(0.100000,-0.100000)"
fill="#000000" stroke="none">
<path d="M80 519 c1 -35 7 -81 15 -103 13 -36 12 -43 -11 -94 -13 -30 -24 -58
-24 -62 0 -4 31 -30 69 -58 38 -27 77 -64 87 -81 19 -33 68 -61 104 -61 36 0
85 28 104 61 10 17 49 54 87 81 38 28 69 54 69 58 0 4 -11 32 -24 62 -23 51
-24 58 -11 94 8 22 14 68 15 103 l0 64 -47 -7 c-29 -4 -61 -17 -83 -34 -31
-25 -43 -27 -110 -27 -66 0 -79 3 -111 28 -21 16 -55 30 -82 33 l-47 7 0 -64z
m103 -9 l26 -21 -37 -34 c-36 -33 -37 -33 -44 -12 -3 12 -6 37 -7 55 -1 39 22
43 62 12z m336 -12 c-1 -18 -4 -43 -7 -55 -7 -21 -8 -21 -44 12 l-37 34 26 21
c40 31 63 27 62 -12z m-136 -32 c46 -19 96 -72 123 -131 13 -27 24 -55 24 -61
0 -6 -25 -28 -55 -48 -30 -20 -66 -54 -80 -76 -42 -67 -108 -67 -150 0 -14 22
-50 56 -80 76 -30 20 -55 42 -55 48 0 25 49 114 81 145 58 59 126 75 192 47z"/>
<path d="M200 312 c0 -20 34 -52 56 -52 28 0 30 7 8 38 -14 21 -64 32 -64 14z"/>
<path d="M376 298 c-22 -31 -20 -38 8 -38 22 0 56 32 56 52 0 18 -50 7 -64
-14z"/>
<path d="M280 187 c0 -8 9 -22 20 -32 19 -17 21 -17 40 0 32 29 25 45 -20 45
-27 0 -40 -4 -40 -13z"/>
</g>
</svg>
